PathFileType	4	(X/Y/Z)	C:/Users/opensim2020/Desktop/walking_exp_matlab/subject06_walking19_straight_03.trc	
DataRate	CameraRate	NumFrames	NumMarkers	Units	OrigDataRate	OrigDataStartFrame	OrigNumFrames	
100.00	100.00	6	49	mm	100.00	3401	358	
Frame#	Time	LFHD			RFHD			LBHD			RBHD			C7			T10			CLAV			STRN			RBAK			LSHO			LUPA			LELB			LFRM			LWRA			LWRB			LFIN			RSHO			RUPA			RELB			RFRM			RWRA			RWRB			RFIN			LASI			RASI			LPSI			RPSI			LTHI			LKNE			LTIB			LANK			LHEE			LTOE			RTHI			RKNE			RTIB			RANK			RHEE			RTOE			*39			*40			*41			*42			*43			*44			*45			*46			*47			*48			
		X1	Y1	Z1	X2	Y2	Z2	X3	Y3	Z3	X4	Y4	Z4	X5	Y5	Z5	X6	Y6	Z6	X7	Y7	Z7	X8	Y8	Z8	X9	Y9	Z9	X10	Y10	Z10	X11	Y11	Z11	X12	Y12	Z12	X13	Y13	Z13	X14	Y14	Z14	X15	Y15	Z15	X16	Y16	Z16	X17	Y17	Z17	X18	Y18	Z18	X19	Y19	Z19	X20	Y20	Z20	X21	Y21	Z21	X22	Y22	Z22	X23	Y23	Z23	X24	Y24	Z24	X25	Y25	Z25	X26	Y26	Z26	X27	Y27	Z27	X28	Y28	Z28	X29	Y29	Z29	X30	Y30	Z30	X31	Y31	Z31	X32	Y32	Z32	X33	Y33	Z33	X34	Y34	Z34	X35	Y35	Z35	X36	Y36	Z36	X37	Y37	Z37	X38	Y38	Z38	X39	Y39	Z39	X40	Y40	Z40	X41	Y41	Z41	X42	Y42	Z42	X43	Y43	Z43	X44	Y44	Z44	X45	Y45	Z45	X46	Y46	Z46	X47	Y47	Z47	X48	Y48	Z48	X49	Y49	Z49	

135	1.340	1409.94775	-291.54355	1664.17749	1541.36658	-283.16898	1654.90601	1418.84546	-424.77338	1610.84534	1547.98401	-414.96915	1606.44800	1472.68628	-427.46448	1457.38477	1477.54919	-470.62161	1129.09509	1471.17883	-320.72406	1375.64990	1464.28320	-287.89377	1199.10950	1553.97937	-503.71536	1288.60706	1308.96545	-373.99265	1409.63379	1237.14465	-398.88995	1207.94849	1225.38367	-415.16574	1096.93713	1198.18164	-399.32486	948.15656	1229.95776	-337.82047	831.38715	1199.94824	-402.35132	828.74011	1191.86304	-362.92282	747.21332	1632.48450	-359.56122	1408.05579	1723.91357	-396.10950	1211.15295	1735.19482	-382.10864	1090.41162	1742.33618	-336.02487	980.06097	1694.02100	-240.18414	870.30084	1737.32581	-288.04803	852.13879	1730.86914	-229.40376	792.05286	1365.75964	-296.79819	967.26459	1586.06213	-300.75183	967.66718	1389.74744	-455.71451	994.33148	1558.69385	-452.38553	998.09729	1288.58313	-303.10788	661.14465	1311.22412	-242.90257	509.09183	1312.85022	-228.18434	256.01602	1346.03076	-189.37776	85.81756	1395.77710	-220.17918	62.99319	1336.30518	-43.97036	82.19953	1623.90222	-374.98123	634.62128	1599.07434	-386.35602	509.04855	1592.58545	-482.10944	257.17764	1541.52783	-535.82288	79.48319	1501.63379	-583.65430	60.47954	1518.35706	-386.97873	37.90000	1474.90027	-387.62177	1703.89929																											 
136	1.350	1409.41931	-286.28500	1663.59558	1540.78540	-277.98926	1654.37012	1418.15710	-419.45392	1610.30383	1547.49023	-409.97485	1606.00671	1472.10840	-422.38168	1456.86340	1476.58740	-465.34177	1128.58008	1470.62158	-315.39026	1375.12573	1463.99854	-282.38165	1198.63123	1553.31970	-498.60867	1288.08899	1308.38953	-368.49161	1409.01978	1237.03467	-393.94876	1207.31421	1225.12988	-411.14487	1096.47729	1198.02844	-396.07468	947.62012	1229.73743	-334.56976	830.64343	1200.02905	-399.79233	828.24536	1191.99390	-360.78867	746.46918	1631.92578	-354.48810	1407.61182	1723.32422	-391.12204	1210.66260	1734.69910	-376.81607	1089.92444	1741.89734	-331.11093	979.54620	1693.96118	-234.90628	869.75946	1737.19092	-282.97217	851.59955	1730.90100	-224.32571	791.51837	1365.55188	-290.85553	966.42804	1585.86169	-295.80994	967.14667	1388.54736	-449.82208	993.75494	1557.62512	-447.45059	997.69739	1287.61902	-297.86691	660.16302	1310.57739	-237.78215	508.19196	1312.60010	-218.01091	255.38737	1345.64233	-175.80046	85.99547	1395.44910	-205.78568	63.05993	1335.94568	-29.69212	84.29954	1623.54321	-371.30234	634.44708	1598.84375	-383.15594	508.86496	1592.21350	-480.66345	257.55307	1541.18640	-535.52960	80.16008	1501.17407	-583.38165	61.39624	1518.50208	-387.09061	38.04686	1474.23340	-382.42822	1703.41052																											 
137	1.360	1408.75745	-280.88730	1663.02380	1540.19226	-272.78900	1653.85205	1417.44568	-414.15082	1609.71558	1546.76294	-404.76114	1605.42822	1471.31995	-416.85324	1456.16504	1475.49365	-459.84064	1127.89636	1470.18896	-309.93839	1374.67542	1463.59570	-276.78540	1198.11218	1552.54932	-493.35532	1287.52954	1307.71533	-362.97766	1408.38550	1236.32471	-389.30121	1206.92822	1224.89307	-407.01685	1096.06409	1197.92603	-392.73828	947.03162	1229.51477	-331.59552	829.93298	1200.00916	-397.15210	827.79071	1192.06165	-358.37891	745.71051	1631.35754	-349.34424	1407.10254	1722.71411	-386.08582	1210.15710	1734.17493	-371.63248	1089.42773	1741.53955	-325.99567	979.00073	1693.80688	-229.66609	869.13702	1736.94861	-277.96259	851.00885	1730.85278	-219.29758	790.79169	1365.25952	-285.08224	965.49005	1585.60315	-290.76880	966.67322	1387.35242	-443.74600	993.04828	1556.40735	-442.41901	997.28021	1286.74341	-292.25821	659.07922	1310.30859	-232.63831	507.23288	1312.28906	-208.36026	254.91226	1344.94067	-162.55200	86.34278	1394.83740	-192.05637	63.07124	1335.30078	-16.05489	86.57066	1623.09497	-367.64105	634.30786	1598.62415	-380.12924	508.69119	1591.91626	-479.37192	257.95303	1540.83044	-535.24231	80.85926	1500.67517	-583.09589	62.32989	1518.26892	-386.98029	37.96419	1473.48108	-377.15152	1702.82959																											 
138	1.370	1408.10864	-275.52310	1662.48767	1539.56091	-267.60617	1653.34412	1416.58813	-408.71570	1609.08215	1545.78748	-399.45288	1604.88184	1470.59937	-411.59735	1455.61292	1474.23438	-454.15576	1127.13110	1469.51111	-304.47418	1374.11133	1463.10754	-271.12048	1197.60425	1551.62781	-487.91724	1286.85291	1307.02344	-357.34045	1407.77014	1235.84863	-384.28104	1206.34290	1224.59155	-402.63541	1095.58093	1197.80371	-389.13812	946.56940	1229.42102	-328.93454	829.23395	1200.08899	-393.87637	827.16016	1192.16150	-355.71790	744.96277	1630.73389	-344.20093	1406.57227	1722.00049	-381.00021	1209.59021	1733.64941	-366.45111	1088.84009	1741.25854	-320.73669	978.41193	1693.79041	-224.71446	868.34113	1736.75391	-272.95773	850.33710	1730.91699	-214.41742	790.20850	1364.77283	-279.03268	964.61975	1585.10193	-285.67590	966.11786	1385.95337	-437.83713	992.53088	1555.09863	-437.27484	996.97888	1286.19104	-287.40836	658.00317	1310.24402	-227.41130	506.41873	1311.94604	-199.16492	254.40044	1344.24084	-150.05563	86.62961	1394.01306	-179.26408	62.96595	1334.55225	-3.48525	88.89473	1622.61890	-363.97363	634.16077	1598.40405	-377.07730	508.55768	1591.60046	-478.16757	258.38254	1540.52905	-534.93774	81.51431	1500.27295	-582.85077	63.23410	1518.39941	-386.99219	38.05341	1472.69324	-371.90323	1702.26611																											 
139	1.380	1407.43823	-270.20236	1661.91382	1538.87683	-262.40924	1652.85022	1415.74829	-403.37848	1608.51221	1545.09497	-394.34280	1604.31226	1469.69165	-406.00165	1454.95605	1472.98047	-448.69739	1126.56287	1468.87524	-298.90903	1373.59753	1462.51086	-265.40234	1197.06763	1550.63513	-482.49695	1286.14795	1306.22388	-351.65555	1407.10303	1235.38831	-379.19455	1205.79150	1224.24646	-398.08807	1095.11108	1197.62622	-385.42563	945.90295	1229.26245	-325.62079	828.49939	1200.08789	-390.62369	826.58325	1192.27002	-352.72983	744.16541	1630.01404	-338.99698	1406.00525	1721.27356	-375.94101	1209.00232	1733.00903	-361.32584	1088.26392	1740.74194	-315.71295	977.79907	1693.47766	-219.71132	867.49072	1736.62231	-268.04660	849.62268	1730.72498	-209.64714	789.31586	1364.25049	-273.08856	963.70941	1584.57251	-280.50177	965.47260	1384.64868	-431.53400	991.83710	1553.84644	-432.42938	996.64594	1285.79553	-282.18417	656.74426	1310.28467	-222.09012	505.72144	1311.50977	-190.36285	254.00026	1343.64282	-138.19788	86.96917	1393.25012	-167.32135	62.65486	1333.68140	7.95356	91.41224	1622.02844	-360.37900	633.90869	1598.15491	-374.12009	508.36871	1591.14575	-476.89297	258.76675	1540.27686	-534.71710	82.15874	1499.89453	-582.63263	64.13261	1518.88208	-387.03223	37.95896	1471.87195	-366.65567	1701.68433																											 
140	1.390	1406.74377	-264.75415	1661.41309	1538.18567	-257.19656	1652.37231	1414.82959	-397.93594	1607.84399	1544.06677	-389.03519	1603.72314	1468.71289	-400.34671	1454.26831	1471.57019	-442.98444	1125.87744	1468.11060	-293.26819	1373.08752	1461.83362	-259.55444	1196.56970	1549.51880	-476.95425	1285.45056	1305.44043	-345.97647	1406.44592	1234.76392	-374.02921	1205.16394	1223.83484	-393.36990	1094.58362	1197.53430	-381.35629	945.24115	1228.98804	-321.37799	827.67078	1199.97607	-387.16516	826.04187	1192.36853	-349.54962	743.38977	1629.27954	-333.74527	1405.40015	1720.48621	-370.80795	1208.41296	1732.39063	-356.16922	1087.65076	1740.30969	-310.75266	977.06940	1693.31384	-214.76306	866.60223	1736.28210	-263.37451	848.84198	1730.56140	-205.02383	788.35529	1363.52991	-266.97058	962.74890	1583.96436	-275.13486	964.98651	1383.27576	-425.45346	991.29260	1552.45325	-426.82047	996.23517	1285.12769	-276.33667	655.43909	1310.23425	-216.70837	505.04968	1311.06702	-182.22017	253.42828	1343.27515	-127.19824	87.01592	1392.68335	-156.11964	62.24579	1332.85181	18.79492	93.87592	1621.57446	-356.78241	633.65491	1597.89539	-371.07251	508.12372	1590.73987	-475.47107	259.09921	1540.14563	-534.56592	82.94002	1499.67603	-582.73120	65.41550	1518.96118	-386.99438	37.89868	1471.00366	-361.36093	1701.09058																											 
